<?xml version="1.0" encoding="utf-8"?>
<!-- Generator: Adobe Illustrator 24.2.3, SVG Export Plug-In . SVG Version: 6.00 Build 0)  -->
<svg version="1.1" id="Layer_1" xmlns="http://www.w3.org/2000/svg" xmlns:xlink="http://www.w3.org/1999/xlink" x="0px" y="0px"
	 viewBox="0 0 595.3 841.9" style="enable-background:new 0 0 595.3 841.9;" xml:space="preserve">
<style type="text/css">
	.st0{fill:#B19D9C;}
	.st1{fill:#99BD99;}
</style>
<g>
	<path class="st0" d="M270.4,477.7c-8.7,7.2-17.4,14.4-26.1,21.6c-5.4,4.2-6.2,11.9-2.5,16.7c4.1,5.2,12.6,5.9,17.9,0.6
		c3.6-1.9,7.1-3.8,10.7-5.7v143c0.6,8.9,8.7,14.8,15.9,13.4c6-1.2,10.9-7.4,10.4-14.7c-0.8-39.6-1.5-79.1-2.3-118.7
		c8.3,2.7,16.7,5.4,25,8.2c6.1,1.7,12.6-1.4,15.3-7.2c2.7-5.8,0.7-12.8-4.6-16.3c-11.1-4.3-22.1-8.5-33.2-12.8c0-11.2,0-22.5,0-33.7
		c-1-9.1-8.7-15-15.3-14.3C274.2,458.6,267.5,467.8,270.4,477.7z"/>
	<path class="st0" d="M269.3,230.6c47,0,94,0,140.9,0v-38.3c-57.7,0-115.4,0-173.1,0C227,245,216.7,297.8,206.5,350.6
		c5.7-3.4,12.6-7.1,20.6-10.3c9.1-3.7,17.5-6.1,24.7-7.6C257.6,298.6,263.5,264.6,269.3,230.6z"/>
	<path class="st1" d="M199.2,390.2c11.2-7.6,33.3-20.4,63.5-22.8c9.6-0.8,66.3-5.3,98.4,36.2c19.1,24.7,19.2,52.5,19.1,60.8
		c-0.1,11.6-2.6,43.7-28.6,69.5c-5.6,5.6-31.3,29.7-70,28c-30.6-1.3-50.7-18-55.1-21.9c-20.7-18-26.8-40.1-28.6-47.8
		c-12.4,0-24.9,0-37.3,0c3.5,19.4,10.5,33.5,15.6,42c22.4,37.5,57.7,51.4,68,55c19.8,6.9,38.1,7.9,51.9,7c12.5-1.4,48.5-7,79.7-36.5
		c6.5-6.1,45-43.7,42.5-102.4c-3-69.7-61.5-105.9-66.2-108.8c-44-26.3-100.1-25.3-145.5,2C204.1,363.8,201.6,377,199.2,390.2z"/>
</g>
</svg>
